<?xml version="1.0" encoding="UTF-8"?>
    <!-- The Best Svg Icon site in the world: iconSvg.co, Visit us! https://iconsvg.co -->
    <svg id="svg" fill="#000000" stroke="#000000" width="200px" height="200px" version="1.1" viewBox="144 144 512 512" xmlns="http://www.w3.org/2000/svg">
    <g id="IconSvg_bgCarrier" stroke-width="0"></g>
    <g id="IconSvg_tracerCarrier" stroke-linecap="round" stroke-linejoin="round" stroke="#CCCCCC"></g>
     <g id="IconSvg_iconCarrier">
      <path xmlns="http://www.w3.org/2000/svg" d="m415.62 325.43c0 2.5195 1.0078 5.0391 3.0234 7.0547l57.434 57.434h-176.33c-5.543 0-10.078 4.5352-10.078 10.078s4.5352 10.078 10.078 10.078h176.33l-57.434 57.43c-2.0156 2.0156-3.0234 4.5352-3.0234 7.0547s1.0078 5.0391 3.0234 7.0547c4.0312 4.0312 10.078 4.0312 14.105 0l74.562-74.562c4.0312-4.0312 4.0312-10.078 0-14.105l-74.562-75.07c-4.0312-4.0312-10.078-4.0312-14.105 0-2.0156 2.0156-3.0234 4.5312-3.0234 7.5547z"/>

      </g>
      </svg>