<?xml version="1.0" encoding="UTF-8"?>
   <?xml version="1.0" encoding="UTF-8"?>
    <!-- The Best Svg Icon site in the world: iconSvg.co, Visit us! https://iconsvg.co -->
    <svg id="svg" fill="#000000" stroke="#000000" width="200px" height="200px" version="1.1" viewBox="144 144 512 512" xmlns="http://www.w3.org/2000/svg">
    <g id="IconSvg_bgCarrier" stroke-width="0"></g>
    <g id="IconSvg_tracerCarrier" stroke-linecap="round" stroke-linejoin="round" stroke="#CCCCCC"></g>
     <g id="IconSvg_iconCarrier">
      <path xmlns="http://www.w3.org/2000/svg" d="m519.79 309.31c-2.2188 0.32031-4.2695 1.375-5.8242 2.9922-51.574 51.684-103.16 103.08-154.77 154.77l-73.523-60.773c-2.0195-1.9102-4.7383-2.8984-7.5117-2.7383-2.7734 0.16406-5.3555 1.4648-7.1406 3.5938-1.7812 2.1328-2.6055 4.9023-2.2773 7.6641 0.33203 2.7578 1.7852 5.2578 4.0195 6.9102l80.609 66.754c4 3.3086 9.8633 3.0352 13.539-0.62891 53.727-53.84 107.46-107.35 161.22-161.22v-0.003906c3.207-3.0117 4.0898-7.7539 2.1797-11.719-1.9102-3.9609-6.168-6.2305-10.523-5.5977z"/>

      </g>
      </svg>