<?xml version="1.0" encoding="UTF-8"?>
    <!-- The Best Svg Icon site in the world: iconSvg.co, Visit us! https://iconsvg.co -->
    <svg id="svg" fill="#ffffff" stroke="#ffffff" width="200px" height="200px" version="1.1" viewBox="144 144 512 512" xmlns="http://www.w3.org/2000/svg">
    <g id="IconSvg_bgCarrier" stroke-width="0"></g>
    <g id="IconSvg_tracerCarrier" stroke-linecap="round" stroke-linejoin="round" stroke="#CCCCCC"></g>
     <g id="IconSvg_iconCarrier">
      <path xmlns="http://www.w3.org/2000/svg" d="m421.36 400 104.19-104.19c3.5938-3.8594 4.9219-9.3125 3.4961-14.391-1.4258-5.0742-5.3945-9.043-10.469-10.469-5.0781-1.4219-10.531-0.097656-14.387 3.4961l-104.19 104.19-104.19-104.24c-3.8594-3.5938-9.3125-4.918-14.391-3.4922-5.0742 1.4219-9.043 5.3906-10.469 10.469-1.4219 5.0742-0.097656 10.527 3.4961 14.387l104.19 104.24-104.19 104.19c-3 2.793-4.7344 6.6914-4.8086 10.789-0.070313 4.1016 1.5234 8.0547 4.4258 10.953 2.8984 2.9023 6.8516 4.5 10.953 4.4258 4.1016-0.070313 7.9961-1.8086 10.793-4.8086l104.19-104.19 104.19 104.19c3.8555 3.5938 9.3086 4.9219 14.387 3.4961 5.0742-1.4258 9.043-5.3945 10.469-10.469 1.4258-5.0781 0.097656-10.531-3.4961-14.387z"/>

      </g>
      </svg>