<?xml version="1.0" encoding="UTF-8"?>
    <!-- The Best Svg Icon site in the world: iconSvg.co, Visit us! https://iconsvg.co -->
    <svg id="svg" fill="#000000" stroke="#000000" width="200px" height="200px" version="1.1" viewBox="144 144 512 512" xmlns="http://www.w3.org/2000/svg">
    <g id="IconSvg_bgCarrier" stroke-width="0"></g>
    <g id="IconSvg_tracerCarrier" stroke-linecap="round" stroke-linejoin="round" stroke="#CCCCCC"></g>
     <g id="IconSvg_iconCarrier">
      <path xmlns="http://www.w3.org/2000/svg" d="m499.7 461.56c-2.168-0.25-53.906-5.7422-83.48 23.781-3.375 3.375-6.2461 7.0039-8.7148 10.832v-79.902c14.309-4.8359 55.418-21.312 78.441-57.988 27.609-43.984 17.785-98.797 17.383-101.11-0.40234-2.168-1.6641-4.0312-3.5273-5.1875-1.8633-1.1602-4.1328-1.5117-6.1953-0.90625-0.50391 0.15234-9.9766 2.7695-22.922 8.8672-4.2812-18.793-10.43-31.539-10.73-32.145-0.95703-1.9648-2.6719-3.4258-4.7852-4.082-2.0664-0.60547-4.332-0.35156-6.2461 0.75391-0.65625 0.40234-13.957 8.3125-28.816 22.871-8.1133-13.047-15.367-21.008-15.719-21.41-1.4609-1.6133-3.5781-2.5195-5.7422-2.5195-2.168 0-4.2812 0.90625-5.7422 2.5195-0.40234 0.40234-8.0625 8.8672-16.523 22.621-15.316-15.316-29.32-23.629-30.027-24.031-1.8633-1.1094-4.1328-1.3594-6.2461-0.75391-2.0664 0.65625-3.8281 2.1172-4.7852 4.082-0.30078 0.55469-5.9453 12.445-10.176 30.078-10.578-4.6367-18.035-6.6992-18.391-6.8008-2.1172-0.55469-4.332-0.25-6.1953 0.90625-1.8633 1.1602-3.125 3.0234-3.5273 5.1875-0.45312 2.3164-10.227 57.133 17.383 101.11 22.168 35.266 61.062 51.941 77.434 57.637v79.449c-2.3672-3.5273-5.0898-6.8516-8.1602-9.9766-29.574-29.574-81.266-24.031-83.48-23.781-3.6289 0.40234-6.4492 3.2734-6.9023 6.9023-0.25 2.168-5.7422 53.906 23.781 83.48 21.211 21.211 53.809 24.336 71.34 24.336 5.793 0 9.9258-0.35156 11.488-0.50391 1.5625 0.15234 5.6914 0.50391 11.488 0.50391 17.531 0 50.129-3.1758 71.34-24.336 29.574-29.574 24.031-81.266 23.781-83.48-0.40234-3.6289-3.2734-6.4492-6.9023-6.9023zm-107.82 87.461-35.922-35.922c-3.0742-3.0742-8.0117-3.0742-11.035 0-3.0742 3.0742-3.0742 8.0117 0 11.035l36.172 36.172c-15.668-0.90625-38.238-4.8867-52.898-19.496-18.691-18.691-20.051-50.48-19.699-64.137 13.652-0.40234 45.395 0.95703 64.137 19.699 13.453 13.453 17.887 33.605 19.246 48.969zm66.25-264.15c0.80469-0.55469 1.6133-1.1094 2.4688-1.6133 2.6211-1.6641 5.3398-3.2734 8.1602-4.7852 7.9102-4.2812 15.062-7.3555 20.305-9.3711 1.4102 16.426 1.8125 51.992-16.324 80.863-13.855 22.117-36.023 36.125-52.496 44.133 0.25-0.40234 0.50391-0.85547 0.75391-1.2578s0.50391-0.80469 0.75391-1.2109c0.50391-0.85547 1.0586-1.7617 1.6133-2.7188 0.20312-0.35156 0.45312-0.75391 0.65625-1.1094 1.5117-2.6211 3.0234-5.4414 4.4844-8.4141 0.20312-0.40234 0.40234-0.80469 0.60547-1.2109 0.55469-1.1094 1.0586-2.168 1.5625-3.3242 0.25-0.55469 0.50391-1.1094 0.75391-1.6641 0.45312-1.0586 0.90625-2.0664 1.3594-3.1758 0.25-0.60547 0.50391-1.2109 0.75391-1.8125 0.45312-1.1094 0.85547-2.2148 1.3086-3.3242 0.20312-0.60547 0.45312-1.1602 0.65625-1.7617 0.50391-1.3086 0.95703-2.6719 1.4102-3.9805 0.15234-0.40234 0.30078-0.80469 0.40234-1.2578 0.55469-1.7617 1.1094-3.5781 1.6641-5.4414 0.10156-0.40234 0.20312-0.80469 0.30078-1.2109 0.40234-1.4609 0.75391-2.8711 1.1094-4.3828 0.15234-0.65625 0.30078-1.3086 0.45312-1.9648 0.25-1.2578 0.50391-2.5195 0.75391-3.7773 0.15234-0.75391 0.25-1.4609 0.40234-2.2148 0.20313-1.2578 0.40234-2.5195 0.55469-3.7773 0.10156-0.75391 0.20312-1.4609 0.30078-2.2148 0.15234-1.3594 0.25-2.7188 0.35156-4.082 0-0.65625 0.10156-1.3086 0.15234-1.9648 0.10156-2.0156 0.20312-4.082 0.20312-6.1445 0-2.0664-0.050781-4.1328-0.20312-6.1953 0-0.65625-0.10156-1.3594-0.15234-2.0156-0.10156-1.4102-0.25-2.8711-0.40234-4.2812-0.10156-0.80469-0.20312-1.5625-0.30078-2.3672-0.20312-1.3594-0.40234-2.7188-0.60547-4.082-0.15234-0.80469-0.25-1.6133-0.45312-2.418-0.10156-0.45312-0.15234-0.85547-0.25-1.3086 0.70703-0.65625 1.3594-1.3086 2.1172-1.9141 0.85547-0.75391 1.7617-1.5117 2.6719-2.2656 1.4102-1.1602 2.8711-2.2656 4.332-3.4258 0.90625-0.70703 1.8125-1.4102 2.7188-2.0664 1.6641-1.2109 3.4258-2.3672 5.1875-3.5273zm-8.7656-41.816c2.168 5.8438 4.9375 14.41 6.9531 24.484-0.70703 0.40234-1.3594 0.90625-2.0664 1.3086-1.9648 1.2109-3.8789 2.418-5.7422 3.6797-1.3086 0.90625-2.6719 1.7617-3.9805 2.6719-1.8633 1.3594-3.6797 2.7188-5.4922 4.1328-0.85547 0.65625-1.7617 1.2578-2.5703 1.9141-0.30078-0.95703-0.75391-1.9141-1.1094-2.8711-0.65625-1.8125-1.3086-3.5781-2.0664-5.3906-0.60547-1.4102-1.2109-2.8203-1.8633-4.2812-0.80469-1.7617-1.6133-3.5273-2.4688-5.3398-0.30078-0.65625-0.60547-1.3086-0.90625-1.9648 7.9609-8.2109 15.719-14.41 21.211-18.391zm-103.28 0c5.7422 4.1797 14.055 10.832 22.469 19.75-0.30078 0.55469-0.50391 1.1602-0.80469 1.7148-0.65625 1.3594-1.2578 2.7188-1.8633 4.082-0.60547 1.3594-1.2109 2.7695-1.8125 4.1328-0.55469 1.4102-1.1094 2.7695-1.6641 4.1797-0.30078 0.80469-0.65625 1.5625-0.90625 2.3672-0.80469-0.65625-1.7148-1.2109-2.5703-1.8125-2.1172-1.6133-4.2812-3.1758-6.6016-4.6836-1.3086-0.85547-2.6719-1.7148-3.9805-2.5703-2.168-1.3594-4.332-2.6719-6.6016-3.9805-0.70703-0.40234-1.3594-0.85547-2.1172-1.2578 1.9648-8.9688 4.4336-16.574 6.3984-21.914zm-18.34 106.91c-18.137-28.918-17.734-64.488-16.324-80.863 4.2305 1.6133 9.7734 3.9297 15.922 7.0039 3.0234 1.5117 5.8945 3.125 8.7148 4.7852 0.90625 0.55469 1.7617 1.1094 2.6719 1.6641 1.8633 1.1602 3.6797 2.2656 5.4414 3.4766 1.0078 0.70703 1.9648 1.4102 2.9727 2.1172 1.5625 1.1094 3.0742 2.2148 4.5859 3.375 0.95703 0.75391 1.9141 1.5625 2.8711 2.3164 0.75391 0.60547 1.4609 1.2578 2.2148 1.9141-0.10156 0.50391-0.20312 0.95703-0.30078 1.4609-0.20312 0.90625-0.35156 1.8125-0.55469 2.6719-0.25 1.4609-0.50391 2.9219-0.75391 4.4336-0.15234 0.85547-0.25 1.7617-0.35156 2.6211-0.20312 1.5625-0.35156 3.1758-0.50391 4.7344-0.050781 0.75391-0.15234 1.4609-0.20312 2.2148-0.15234 2.3164-0.25 4.5859-0.25 6.9023 0 3.1758 0.20312 6.2969 0.45312 9.3711 0.050781 0.70703 0.10156 1.4609 0.20312 2.168 0.30078 3.0234 0.70703 5.9961 1.2578 8.918 0.050782 0.30078 0.15234 0.60547 0.20312 0.90625 0.50391 2.6719 1.1094 5.3398 1.8125 7.9102 0.15234 0.65625 0.35156 1.3086 0.50391 1.9141 0.75391 2.7695 1.5625 5.4922 2.4688 8.1133 0.15234 0.45312 0.30078 0.85547 0.45312 1.2578 0.80469 2.3164 1.7148 4.6367 2.6211 6.8516 0.20312 0.55469 0.40234 1.0586 0.65625 1.6133 1.0586 2.4688 2.1172 4.8359 3.2227 7.1523 0.20313 0.45312 0.45313 0.90625 0.65625 1.3594 1.0078 2.0156 2.0156 3.9805 3.0234 5.8945 0.20312 0.35156 0.40234 0.75391 0.60547 1.1094 1.1602 2.1172 2.3164 4.1328 3.4766 6.0469 0.10156 0.15234 0.15234 0.30078 0.25 0.45313-15.871-8.3125-35.316-21.715-47.914-41.816zm71.844 46.805v0.10156c-0.35156 0.40234-0.60547 0.70703-0.90625 1.0586-0.50391-0.70703-1.0586-1.3594-1.6133-2.1172-10.277-14.156-27.508-42.672-27.508-75.066 0-8.4648 1.1602-17.129 3.5273-25.844 2.5195-9.6719 6.5-19.699 11.84-29.727 4.8867-9.168 10.027-16.625 13.855-21.613 3.5781 4.7344 8.4141 11.738 13.098 20.355 1.5117 2.7695 2.9219 5.4922 4.2305 8.2617 3.9297 8.3125 6.9023 16.676 8.8672 24.938 1.4609 6.0469 2.3672 11.992 2.7188 17.785 0.10156 1.9141 0.20312 3.8789 0.20312 5.7422 0 5.8438-0.55469 11.586-1.5625 17.129-0.40234 2.3164-0.90625 4.5859-1.4609 6.8516-3.375 13.805-9.1172 26.199-14.711 35.922-0.65625 1.1602-1.3086 2.2656-1.9648 3.3242l-0.15234 0.30078c-2.1172 3.4766-4.1797 6.5508-5.9961 9.1172-0.85547 1.2578-1.6641 2.418-2.4688 3.4766zm72.195 144.09c-14.609 14.609-37.18 18.59-52.898 19.496l36.172-36.172c3.0742-3.0742 3.0742-8.0117 0-11.035-3.0742-3.0742-8.0117-3.0742-11.035 0l-36.125 36.125c0-0.30078 0-0.55469-0.050782-0.85547 0.95703-15.617 5.0898-37.586 19.496-51.941 18.742-18.742 50.48-20.051 64.137-19.699 0.40234 13.602-0.90625 45.344-19.699 64.137z"/>

      </g>
      </svg>