<?xml version="1.0" encoding="UTF-8"?>
    <!-- The Best Svg Icon site in the world: iconSvg.co, Visit us! https://iconsvg.co -->
    <svg id="svg" fill="#ffffff" stroke="#ffffff" width="200px" height="200px" version="1.1" viewBox="144 144 512 512" xmlns="http://www.w3.org/2000/svg">
    <g id="IconSvg_bgCarrier" stroke-width="0"></g>
    <g id="IconSvg_tracerCarrier" stroke-linecap="round" stroke-linejoin="round" stroke="#CCCCCC"></g>
     <g id="IconSvg_iconCarrier">
      <g xmlns="http://www.w3.org/2000/svg">
  <path d="m259.57 296.72h298.09c8.3477 0 15.113-6.7656 15.113-15.113 0-8.3477-6.7656-15.113-15.113-15.113l-298.09-0.003907c-8.3477 0-15.113 6.7656-15.113 15.113 0 8.3516 6.7656 15.117 15.113 15.117z"/>
  <path d="m557.66 374.81h-298.09c-8.3477 0-15.113 6.7656-15.113 15.113s6.7656 15.113 15.113 15.113h298.09c8.3477 0 15.113-6.7656 15.113-15.113 0.003906-8.3477-6.7617-15.113-15.113-15.113z"/>
  <path d="m557.66 483.13h-298.09c-8.3477 0-15.113 6.7656-15.113 15.113 0 8.3477 6.7656 15.113 15.113 15.113h298.09c8.3477 0 15.113-6.7656 15.113-15.113 0.003906-8.3477-6.7617-15.113-15.113-15.113z"/>
 </g>

      </g>
      </svg>